<?xml version="1.0" encoding="utf-8"?>
<?xml-stylesheet type="text/xsl" href="rss1.xsl"?>
<rss version="2.0" xmlns:atom="http://www.w3.org/2005/Atom" xmlns:content="http://purl.org/rss/1.0/modules/content/" xmlns:dc="http://purl.org/dc/elements/1.1/" xmlns:media="http://search.yahoo.com/mrss/">
<channel>
 <title>Getty</title>
 <link>http://www.gettyimg.com/</link>
 <atom:link href="http://www.gettyimg.com/" rel="self" type="application/rss+xml" />

 
                <item>
                <title><![CDATA[【HD Live Performances】HDTV - New Year's Eve Live Nashville's Big Bash 2023 HDTV H264 1080i DD5.1-ilya2129]]></title>
                <link><![CDATA[https://sharemania.us/threads/new-years-eve-live-nashvilles-big-bash-2023-hdtv-h264-1080i-dd5-1-ilya2129.235212/]]></link>
                <description><![CDATA[<article>
<blockquote class="messageText SelectQuoteContainer ugc baseHtml">
<div style="text-align: center"><img src="https://i122.fastpic.org/big/2024/0101/2e/c3de7ab4ae4982d691070634679b382e.png?r=1" class="bbCodeImage LbImage" alt="[​IMG]" data-url="https://i122.fastpic.org/big/2024/0101/2e/c3de7ab4ae4982d691070634679b382e.png?r=1" style=""><br>
<br>
<a href="https://postimg.cc/WhHMfWFd" target="_blank" class="externalLink" rel="nofollow"><img src="https://i.postimg.cc/WhHMfWFd/vlcsnap-2024-01-01-13h34m15s003.png" class="bbCodeImage LbImage" alt="[​IMG]" data-url="https://i.postimg.cc/WhHMfWFd/vlcsnap-2024-01-01-13h34m15s003.png"></a> <a href="https://postimg.cc/CB78CmpL" target="_blank" class="externalLink" rel="nofollow"><img src="https://i.postimg.cc/CB78CmpL/vlcsnap-2024-01-01-13h34m16s470.png" class="bbCodeImage LbImage" alt="[​IMG]" data-url="https://i.postimg.cc/CB78CmpL/vlcsnap-2024-01-01-13h34m16s470.png"></a> <a href="https://postimg.cc/14RwRhDg" target="_blank" class="externalLink" rel="nofollow"><img src="https://i.postimg.cc/14RwRhDg/vlcsnap-2024-01-01-13h34m22s035.png" class="bbCodeImage LbImage" alt="[​IMG]" data-url="https://i.postimg.cc/14RwRhDg/vlcsnap-2024-01-01-13h34m22s035.png"></a> <a href="https://postimg.cc/t1HnLLX4" target="_blank" class="externalLink" rel="nofollow"><img src="https://i.postimg.cc/t1HnLLX4/vlcsnap-2024-01-01-13h34m24s698.png" class="bbCodeImage LbImage" alt="[​IMG]" data-url="https://i.postimg.cc/t1HnLLX4/vlcsnap-2024-01-01-13h34m24s698.png"></a> <a href="https://postimg.cc/HVVM5wZd" target="_blank" class="externalLink" rel="nofollow"><img src="https://i.postimg.cc/HVVM5wZd/vlcsnap-2024-01-01-13h34m26s616.png" class="bbCodeImage LbImage" alt="[​IMG]" data-url="https://i.postimg.cc/HVVM5wZd/vlcsnap-2024-01-01-13h34m26s616.png"></a> <a href="https://postimg.cc/nXmQSHfW" target="_blank" class="externalLink" rel="nofollow"><img src="https://i.postimg.cc/nXmQSHfW/vlcsnap-2024-01-01-13h34m28s467.png" class="bbCodeImage LbImage" alt="[​IMG]" data-url="https://i.postimg.cc/nXmQSHfW/vlcsnap-2024-01-01-13h34m28s467.png"></a> <a href="https://postimg.cc/Lnw1VJwf" target="_blank" class="externalLink" rel="nofollow"><img src="https://i.postimg.cc/Lnw1VJwf/vlcsnap-2024-01-01-13h34m31s532.png" class="bbCodeImage LbImage" alt="[​IMG]" data-url="https://i.postimg.cc/Lnw1VJwf/vlcsnap-2024-01-01-13h34m31s532.png"></a> <br>
<br>
Trace Adkins<br>
Grace Bowers<br>
Kane Brown<br>
Jackson Dean<br>
HARDY<br>
Cody Johnson<br>
Lynyrd Skynyrd<br>
Parker McCollum<br>
Megan Moroney<br>
Brothers Osborne<br>
Jon Pardi<br>
Carly Pearce<br>
Thomas Rhett<br>
Blake Shelton<br>
Trombone Shorty<br>
Morgan Wallen<br>
Lainey Wilson<br>
Bailey Zimmerman<br>
Old Dominion<br>
​</div><br>
<div class="bbCodeBlock bbCodeCode">
<div class="type">Code:</div>
<pre>General
Unique ID                                : 28784177519226152617923584610613304954 (0x15A7A185577C93D41EB25862B4A39E7A)
Complete name                            : F:\New Year's Eve Live Nashville's Big Bash 2023 HDTV H264 1080i DD5.1-ilya2129.mkv
Format                                   : Matroska
Format version                           : Version 4
File size                                : 13.7 GiB
Duration                                 : 3 h 36 min
Overall bit rate                         : 9 081 kb/s
Frame rate                               : 29.970 FPS
Encoded date                             : 2024-01-01 10:14:11 UTC
Writing application                      : mkvmerge v72.0.0 ('Minuano (Six-eight)') 64-bit
Writing library                          : libebml v1.4.4 + libmatroska v1.7.1

Video
ID                                       : 1
Format                                   : AVC
Format/Info                              : Advanced Video Codec
Format profile                           : High@L4
Format settings                          : CABAC / 4 Ref Frames
Format settings, CABAC                   : Yes
Format settings, Reference frames        : 4 frames
Codec ID                                 : V_MPEG4/ISO/AVC
Duration                                 : 3 h 36 min
Bit rate                                 : 8 695 kb/s
Width                                    : 1 920 pixels
Height                                   : 1 080 pixels
Display aspect ratio                     : 16:9
Active Format Description                : Full frame 16:9 image
Frame rate mode                          : Constant
Frame rate                               : 29.970 (30000/1001) FPS
Standard                                 : Component
Color space                              : YUV
Chroma subsampling                       : 4:2:0
Bit depth                                : 8 bits
Scan type                                : MBAFF
Scan type, store method                  : Interleaved fields
Scan order                               : Top Field First
Bits/(Pixel*Frame)                       : 0.140
Stream size                              : 13.2 GiB (96%)
Default                                  : Yes
Forced                                   : No
Color range                              : Limited
Color primaries                          : BT.709
Transfer characteristics                 : BT.709
Matrix coefficients                      : BT.709

Audio
ID                                       : 2
Format                                   : AC-3
Format/Info                              : Audio Coding 3
Commercial name                          : Dolby Digital
Codec ID                                 : A_AC3
Duration                                 : 3 h 36 min
Bit rate mode                            : Constant
Bit rate                                 : 384 kb/s
Channel(s)                               : 6 channels
Channel layout                           : L R C LFE Ls Rs
Sampling rate                            : 48.0 kHz
Frame rate                               : 31.250 FPS (1536 SPF)
Compression mode                         : Lossy
Stream size                              : 595 MiB (4%)
Language                                 : English
Service kind                             : Complete Main
Default                                  : Yes
Forced                                   : No
</pre>
</div><div style="text-align: center">
<div class="bbCodeBlock bbCodeVfcHH HiddenContent">
<div class="attribution type">Hidden Content:</div>
<blockquote>You must reply before you can see the hidden data contained here.</blockquote>
</div></div>
<div class="messageTextEndMarker">&nbsp;</div>
</blockquote>
</article>]]></description>
                <author><![CDATA[ilya2129]]></author>
                </item>

                
                <item>
                <title><![CDATA[【HD Live Performances】HDTV - ABC TV (Australia) New Year's Eve Party 2023 HDTV H264 1080i MP2-ilya2129]]></title>
                <link><![CDATA[https://sharemania.us/threads/abc-tv-australia-new-years-eve-party-2023-hdtv-h264-1080i-mp2-ilya2129.235213/]]></link>
                <description><![CDATA[<article>
<blockquote class="messageText SelectQuoteContainer ugc baseHtml">
<div style="text-align: center"><img src="https://i122.fastpic.org/big/2023/1231/c4/82926bc61fb5e7981656898706a2b2c4.png?r=1" class="bbCodeImage LbImage" alt="[​IMG]" data-url="https://i122.fastpic.org/big/2023/1231/c4/82926bc61fb5e7981656898706a2b2c4.png?r=1" style=""><br>
<br>
<a href="https://postimg.cc/cKMhj7GP" target="_blank" class="externalLink" rel="nofollow"><img src="https://i.postimg.cc/cKMhj7GP/vlcsnap-2023-12-31-17h37m00s206.png" class="bbCodeImage LbImage" alt="[​IMG]" data-url="https://i.postimg.cc/cKMhj7GP/vlcsnap-2023-12-31-17h37m00s206.png"></a> <a href="https://postimg.cc/0rHfL2h5" target="_blank" class="externalLink" rel="nofollow"><img src="https://i.postimg.cc/0rHfL2h5/vlcsnap-2023-12-31-17h37m03s728.png" class="bbCodeImage LbImage" alt="[​IMG]" data-url="https://i.postimg.cc/0rHfL2h5/vlcsnap-2023-12-31-17h37m03s728.png"></a> <a href="https://postimg.cc/nCy1hSH6" target="_blank" class="externalLink" rel="nofollow"><img src="https://i.postimg.cc/nCy1hSH6/vlcsnap-2023-12-31-17h37m05s096.png" class="bbCodeImage LbImage" alt="[​IMG]" data-url="https://i.postimg.cc/nCy1hSH6/vlcsnap-2023-12-31-17h37m05s096.png"></a> <a href="https://postimg.cc/k2Wv6NGD" target="_blank" class="externalLink" rel="nofollow"><img src="https://i.postimg.cc/k2Wv6NGD/vlcsnap-2023-12-31-17h37m06s692.png" class="bbCodeImage LbImage" alt="[​IMG]" data-url="https://i.postimg.cc/k2Wv6NGD/vlcsnap-2023-12-31-17h37m06s692.png"></a> <a href="https://postimg.cc/KKFrnK3f" target="_blank" class="externalLink" rel="nofollow"><img src="https://i.postimg.cc/KKFrnK3f/vlcsnap-2023-12-31-17h37m08s139.png" class="bbCodeImage LbImage" alt="[​IMG]" data-url="https://i.postimg.cc/KKFrnK3f/vlcsnap-2023-12-31-17h37m08s139.png"></a> <a href="https://postimg.cc/JGDqmCWN" target="_blank" class="externalLink" rel="nofollow"><img src="https://i.postimg.cc/JGDqmCWN/vlcsnap-2023-12-31-17h37m09s860.png" class="bbCodeImage LbImage" alt="[​IMG]" data-url="https://i.postimg.cc/JGDqmCWN/vlcsnap-2023-12-31-17h37m09s860.png"></a> <a href="https://postimg.cc/ygLP6VdP" target="_blank" class="externalLink" rel="nofollow"><img src="https://i.postimg.cc/ygLP6VdP/vlcsnap-2023-12-31-17h37m13s618.png" class="bbCodeImage LbImage" alt="[​IMG]" data-url="https://i.postimg.cc/ygLP6VdP/vlcsnap-2023-12-31-17h37m13s618.png"></a> <br>
<br>
The NYE concert will showcase the biggest names in Australian music, including Jessica Mauboy, Genesis Owusu, King Stingray, Confidence Man, Angie McMahon, Mark Seymour, Grentperez, the Queen of New Year’s Eve, Casey Donovan and international superstar Harry Connick Jr.<br>
In partnership with the City of Sydney, the world-famous fireworks display will light up the city’s famous skyline, bidding a sparkling farewell to 2023 and welcoming in the New Year.<br>
​</div><br>
<div class="bbCodeBlock bbCodeCode">
<div class="type">Code:</div>
<pre>General
Unique ID                                : 278384380311238611271314093961524280926 (0xD16EE1A407055F1B81DDCB3C4B7BFE5E)
Complete name                            : F:\ABC TV New Year's Eve Party 2023 HDTV H264 1080i MP2-ilya2129.mkv
Format                                   : Matroska
Format version                           : Version 4
File size                                : 5.96 GiB
Duration                                 : 3 h 47 min
Overall bit rate                         : 3 756 kb/s
Frame rate                               : 25.000 FPS
Encoded date                             : 2023-12-31 14:38:38 UTC
Writing application                      : mkvmerge v72.0.0 ('Minuano (Six-eight)') 64-bit
Writing library                          : libebml v1.4.4 + libmatroska v1.7.1

Video
ID                                       : 1
Format                                   : AVC
Format/Info                              : Advanced Video Codec
Format profile                           : High@L4
Format settings                          : CABAC / 4 Ref Frames
Format settings, CABAC                   : Yes
Format settings, Reference frames        : 4 frames
Format settings, GOP                     : M=4, N=28
Codec ID                                 : V_MPEG4/ISO/AVC
Duration                                 : 3 h 47 min
Bit rate                                 : 3 498 kb/s
Width                                    : 1 920 pixels
Height                                   : 1 080 pixels
Display aspect ratio                     : 16:9
Frame rate mode                          : Constant
Frame rate                               : 25.000 FPS
Standard                                 : Component
Color space                              : YUV
Chroma subsampling                       : 4:2:0
Bit depth                                : 8 bits
Scan type                                : MBAFF
Scan type, store method                  : Interleaved fields
Scan order                               : Top Field First
Bits/(Pixel*Frame)                       : 0.067
Stream size                              : 5.55 GiB (93%)
Default                                  : Yes
Forced                                   : No
Color range                              : Limited

Audio
ID                                       : 2
Format                                   : MPEG Audio
Format version                           : Version 1
Format profile                           : Layer 2
Codec ID                                 : A_MPEG/L2
Codec ID/Hint                            : MP2
Duration                                 : 3 h 47 min
Bit rate mode                            : Constant
Bit rate                                 : 256 kb/s
Channel(s)                               : 2 channels
Sampling rate                            : 48.0 kHz
Frame rate                               : 41.667 FPS (1152 SPF)
Compression mode                         : Lossy
Stream size                              : 416 MiB (7%)
Language                                 : English
Default                                  : Yes
Forced                                   : No

</pre>
</div><div style="text-align: center">
<div class="bbCodeBlock bbCodeVfcHH HiddenContent">
<div class="attribution type">Hidden Content:</div>
<blockquote>You must reply before you can see the hidden data contained here.</blockquote>
</div></div>
<div class="messageTextEndMarker">&nbsp;</div>
</blockquote>
</article>]]></description>
                <author><![CDATA[ilya2129]]></author>
                </item>

                </channel></rss>